<svg width="111" height="23" viewBox="0 0 111 23" fill="none" xmlns="http://www.w3.org/2000/svg">
<g clip-path="url(#clip0_28_118)">
<path d="M27.0083 11.5083H25.5793V22.4856H21.9777V0.398254H25.5793V11.2843H27.0417L39.0417 0.398254H39.3593L29.7242 9.14357L40.7047 22.4856H36.0668L27.0083 11.5083Z" fill="#FFF200" stroke="#FFF200" stroke-width="0.29" stroke-miterlimit="10"/>
<path d="M54.6936 22.2615V22.4856H42.1588V0.398254H45.7605V22.2615H54.6936Z" fill="#FFF200" stroke="#FFF200" stroke-width="0.29" stroke-miterlimit="10"/>
<path d="M73.0195 0.398254V15.1342C73.0173 17.1888 72.1942 19.1587 70.731 20.6116C69.2678 22.0644 67.2838 22.8816 65.2145 22.8838C60.9108 22.8838 55.7047 21.2244 55.7047 14.0472V0.398254H59.3064V14.0472C59.3064 18.1959 61.0362 22.6598 65.2145 22.6598C67.224 22.6576 69.1505 21.864 70.5715 20.4532C71.9924 19.0423 72.7916 17.1294 72.7938 15.1342V0.398254H73.0195Z" fill="#FFF200" stroke="#FFF200" stroke-width="0.29" stroke-miterlimit="10"/>
<path d="M93.234 16.3954C93.234 20.32 90.0752 22.4607 84.5599 22.4607H75.9861V10.4628V0.630578V0.398254H84.0084C91.078 0.398254 92.1393 3.47654 92.1393 5.37661C92.1393 7.03606 91.3036 9.71608 86.2897 10.355C90.727 10.7698 93.234 12.9271 93.234 16.3954ZM89.6323 16.3954C89.6323 14.1634 88.5543 10.4379 84.117 10.4296H79.5961V22.2615H84.117C88.5543 22.2615 89.6323 18.6439 89.6323 16.3954ZM79.6045 0.630578V10.2554H83.624C84.925 10.2428 86.1702 9.72858 87.0965 8.82129C88.0227 7.914 88.5575 6.68474 88.5878 5.3932C88.5636 4.10726 88.0264 2.88341 87.0941 1.99043C86.1619 1.09746 84.9108 0.608368 83.6156 0.630578H79.6045Z" fill="#FFF200" stroke="#FFF200" stroke-width="0.29" stroke-miterlimit="10"/>
<path d="M110.883 16.9347C110.883 22.3445 104.582 22.693 103.32 22.693C100.02 22.693 94.7883 20.9091 94.7883 16.1299H95.0056C95.0056 20.7598 100.103 22.4856 103.32 22.4856C104.549 22.4856 109.604 22.0707 109.604 18.337C109.604 10.7367 95.7577 16.1133 95.7577 5.8413C95.7577 3.07001 98.0725 0.207458 103.279 0.207458C108.109 0.207458 110.641 3.21107 110.641 6.17319H110.423C110.423 3.31063 107.967 0.41489 103.279 0.41489C98.9917 0.41489 97.078 2.1905 97.078 4.47225C97.0362 12.587 110.883 6.36402 110.883 16.9347Z" fill="#FFF200" stroke="#FFF200" stroke-width="0.28" stroke-miterlimit="10"/>
<path d="M17.7241 21.5729L9.64329 11.5664L17.7324 1.26948C17.8189 1.15081 17.8721 1.01153 17.8868 0.865798C17.9015 0.720066 17.8771 0.573074 17.816 0.439755C17.752 0.308688 17.6523 0.198029 17.5283 0.120308C17.4042 0.0425873 17.2607 0.000911278 17.114 0L0.785352 0.0414863C0.57702 0.0414863 0.377221 0.123659 0.229909 0.269926C0.0825959 0.416194 -0.000163529 0.614575 -0.000163529 0.821429V22.0956C-0.00168353 22.1992 0.0183067 22.3021 0.0585619 22.3977C0.0988171 22.4934 0.158475 22.5798 0.23382 22.6515C0.305117 22.7253 0.390766 22.7839 0.485572 22.8239C0.580379 22.8638 0.682367 22.8842 0.785352 22.8838L17.114 22.8424C17.2621 22.8421 17.4071 22.8002 17.5323 22.7217C17.6575 22.6431 17.7577 22.531 17.8215 22.3983C17.8853 22.2656 17.91 22.1177 17.8927 21.9716C17.8755 21.8256 17.817 21.6873 17.7241 21.5729Z" fill="#FFF200"/>
<path d="M7.88852 4.41412H5.13086V7.15222H7.88852V4.41412Z" fill="#221F20"/>
</g>
<defs>
<clipPath id="clip0_28_118">
<rect width="111" height="23" fill="white"/>
</clipPath>
</defs>
</svg>
